<svg xmlns="http://www.w3.org/2000/svg" viewBox="0 0 64 64" width="64" height="64">
  <rect width="64" height="64" rx="14" fill="#001d39"/>
  <path d="M 25.66,9.89 L 24.39,10.30 L 23.14,10.78 L 21.92,11.33 L 20.73,11.95 L 19.59,12.64 L 18.48,13.39 L 17.42,14.21 L 16.41,15.09 L 15.46,16.02 L 14.55,17.01 L 13.71,18.05 L 12.93,19.14 L 12.22,20.27 L 11.57,21.44 L 10.99,22.65 L 10.48,23.88 L 10.04,25.15 L 9.68,26.44 L 9.40,27.74 L 9.19,29.06 L 9.06,30.40 L 9.00,31.73 L 9.02,33.07 L 9.13,34.40 L 3.16,35.03 L 16.74,41.54 L 25.04,32.73 L 19.07,33.36 L 19.01,32.60 L 19.00,31.85 L 19.03,31.09 L 19.11,30.34 L 19.22,29.59 L 19.39,28.86 L 19.59,28.13 L 19.84,27.41 L 20.12,26.71 L 20.45,26.03 L 20.82,25.37 L 21.22,24.73 L 21.66,24.12 L 22.14,23.53 L 22.65,22.97 L 23.19,22.44 L 23.76,21.94 L 24.36,21.48 L 24.98,21.06 L 25.63,20.67 L 26.30,20.32 L 26.99,20.00 L 27.70,19.73 L 28.42,19.50 Z" fill="#00b398"/><path d="M 16.02,48.54 L 17.01,49.45 L 18.05,50.29 L 19.14,51.07 L 20.27,51.78 L 21.44,52.43 L 22.65,53.01 L 23.88,53.52 L 25.15,53.96 L 26.44,54.32 L 27.74,54.60 L 29.06,54.81 L 30.40,54.94 L 31.73,55.00 L 33.07,54.98 L 34.40,54.87 L 35.73,54.70 L 37.04,54.44 L 38.34,54.11 L 39.61,53.70 L 40.86,53.22 L 42.08,52.67 L 43.27,52.05 L 44.41,51.36 L 45.52,50.61 L 49.05,55.46 L 47.89,40.45 L 36.11,37.66 L 39.64,42.52 L 39.02,42.94 L 38.37,43.33 L 37.70,43.68 L 37.01,44.00 L 36.30,44.27 L 35.58,44.50 L 34.85,44.68 L 34.11,44.83 L 33.36,44.93 L 32.60,44.99 L 31.85,45.00 L 31.09,44.97 L 30.34,44.89 L 29.59,44.78 L 28.86,44.61 L 28.13,44.41 L 27.41,44.16 L 26.71,43.88 L 26.03,43.55 L 25.37,43.18 L 24.73,42.78 L 24.12,42.34 L 23.53,41.86 L 22.97,41.35 Z" fill="#6cc24a"/><path d="M 54.32,37.56 L 54.60,36.26 L 54.81,34.94 L 54.94,33.60 L 55.00,32.27 L 54.98,30.93 L 54.87,29.60 L 54.70,28.27 L 54.44,26.96 L 54.11,25.66 L 53.70,24.39 L 53.22,23.14 L 52.67,21.92 L 52.05,20.73 L 51.36,19.59 L 50.61,18.48 L 49.79,17.42 L 48.91,16.41 L 47.98,15.46 L 46.99,14.55 L 45.95,13.71 L 44.86,12.93 L 43.73,12.22 L 42.56,11.57 L 41.35,10.99 L 43.80,5.51 L 31.37,14.01 L 34.85,25.61 L 37.29,20.12 L 37.97,20.45 L 38.63,20.82 L 39.27,21.22 L 39.88,21.66 L 40.47,22.14 L 41.03,22.65 L 41.56,23.19 L 42.06,23.76 L 42.52,24.36 L 42.94,24.98 L 43.33,25.63 L 43.68,26.30 L 44.00,26.99 L 44.27,27.70 L 44.50,28.42 L 44.68,29.15 L 44.83,29.89 L 44.93,30.64 L 44.99,31.40 L 45.00,32.15 L 44.97,32.91 L 44.89,33.66 L 44.78,34.41 L 44.61,35.14 Z" fill="#c8a064"/>
</svg>
